<svg xmlns="http://www.w3.org/2000/svg" width="655" height="413.676" viewBox="0 0 655 413.676">
  <g id="undraw_Freelancer_re_irh4" transform="translate(0 0)">
    <path id="Path_2" data-name="Path 2" d="M689.063,372.583a122.042,122.042,0,0,1,10.1-38.517q2.279-5.093,5.018-9.961a.744.744,0,0,0-1.284-.75,123.727,123.727,0,0,0-13.768,37.982q-1.034,5.584-1.554,11.246C687.488,373.535,688.975,373.529,689.063,372.583Z" transform="translate(-272.5 -243.16)" fill="#8dfe9e"/>
    <circle id="Ellipse_4" data-name="Ellipse 4" cx="9.414" cy="9.414" r="9.414" transform="translate(425.867 64.5)" fill="#b745f4"/>
    <path id="Path_3" data-name="Path 3" d="M690.026,372.833a79.174,79.174,0,0,1,6.553-24.988q1.479-3.3,3.255-6.462A.483.483,0,0,0,699,340.9a80.266,80.266,0,0,0-8.932,24.641q-.671,3.622-1.008,7.3C689,373.451,689.969,373.447,690.026,372.833Z" transform="translate(-272.5 -243.16)" fill="#8dfe9e"/>
    <circle id="Ellipse_5" data-name="Ellipse 5" cx="6.108" cy="6.108" r="6.108" transform="translate(423.562 87.554)" fill="#b745f4"/>
    <path id="Path_4" data-name="Path 4" d="M688.809,372.257a79.176,79.176,0,0,1-10.2-23.733q-.866-3.515-1.408-7.1a.483.483,0,0,0-.956.128,80.269,80.269,0,0,0,8.113,24.922q1.7,3.269,3.693,6.373c.335.522,1.093-.074.76-.593Z" transform="translate(-272.5 -243.16)" fill="#8dfe9e"/>
    <circle id="Ellipse_6" data-name="Ellipse 6" cx="6.108" cy="6.108" r="6.108" transform="translate(397.628 87.126)" fill="#b745f4"/>
    <path id="Path_5" data-name="Path 5" d="M670.059,377.66v-12a4.505,4.505,0,0,1,4.5-4.5h28a4.505,4.505,0,0,1,4.5,4.5v12a4.505,4.505,0,0,1-4.5,4.5h-28a4.505,4.505,0,0,1-4.5-4.5Z" transform="translate(-272.5 -243.16)" fill="#e39d9d" style="isolation: isolate"/>
    <path id="Path_6" data-name="Path 6" d="M701.559,301.16h-12a4.505,4.505,0,0,1-4.5-4.5v-49a4.5,4.5,0,0,1,4.5-4.5h12a4.505,4.505,0,0,1,4.5,4.5v49a4.505,4.505,0,0,1-4.5,4.5Z" transform="translate(-272.5 -243.16)" fill="#834e20" style="isolation: isolate"/>
    <rect id="Rectangle_213" data-name="Rectangle 213" width="20" height="4" transform="translate(413.059 9.5)" fill="#ccc"/>
    <rect id="Rectangle_214" data-name="Rectangle 214" width="20" height="4" transform="translate(413.059 40.5)" fill="#ccc"/>
    <path id="Path_7" data-name="Path 7" d="M731.559,301.16h-12a4.505,4.505,0,0,1-4.5-4.5v-49a4.5,4.5,0,0,1,4.5-4.5h12a4.505,4.505,0,0,1,4.5,4.5v49a4.505,4.505,0,0,1-4.5,4.5Z" transform="translate(-272.5 -243.16)" fill="#834e20" style="isolation: isolate"/>
    <rect id="Rectangle_215" data-name="Rectangle 215" width="20" height="4" transform="translate(443.059 9.5)" fill="#ccc"/>
    <rect id="Rectangle_216" data-name="Rectangle 216" width="20" height="4" transform="translate(443.059 40.5)" fill="#ccc"/>
    <path id="Path_8" data-name="Path 8" d="M761.559,301.16h-12a4.505,4.505,0,0,1-4.5-4.5v-49a4.5,4.5,0,0,1,4.5-4.5h12a4.505,4.505,0,0,1,4.5,4.5v49a4.505,4.505,0,0,1-4.5,4.5Z" transform="translate(-272.5 -243.16)" fill="#834e20" style="isolation: isolate"/>
    <rect id="Rectangle_217" data-name="Rectangle 217" width="20" height="4" transform="translate(473.059 9.5)" fill="#ccc"/>
    <rect id="Rectangle_218" data-name="Rectangle 218" width="20" height="4" transform="translate(473.059 40.5)" fill="#ccc"/>
    <path id="Path_9" data-name="Path 9" d="M777.559,382.16h-12a4.505,4.505,0,0,1-4.5-4.5v-49a4.505,4.505,0,0,1,4.5-4.5h12a4.5,4.5,0,0,1,4.5,4.5v49a4.505,4.505,0,0,1-4.5,4.5Z" transform="translate(-272.5 -243.16)" fill="#834e20" style="isolation: isolate"/>
    <rect id="Rectangle_219" data-name="Rectangle 219" width="20" height="4" transform="translate(489.059 90.5)" fill="#ccc"/>
    <rect id="Rectangle_220" data-name="Rectangle 220" width="20" height="4" transform="translate(489.059 121.5)" fill="#ccc"/>
    <path id="Path_10" data-name="Path 10" d="M807.559,382.16h-12a4.505,4.505,0,0,1-4.5-4.5v-49a4.505,4.505,0,0,1,4.5-4.5h12a4.5,4.5,0,0,1,4.5,4.5v49a4.505,4.505,0,0,1-4.5,4.5Z" transform="translate(-272.5 -243.16)" fill="#834e20" style="isolation: isolate"/>
    <rect id="Rectangle_221" data-name="Rectangle 221" width="20" height="4" transform="translate(519.059 90.5)" fill="#ccc"/>
    <rect id="Rectangle_222" data-name="Rectangle 222" width="20" height="4" transform="translate(519.059 121.5)" fill="#ccc"/>
    <path id="Path_11" data-name="Path 11" d="M837.559,382.16h-12a4.505,4.505,0,0,1-4.5-4.5v-49a4.505,4.505,0,0,1,4.5-4.5h12a4.5,4.5,0,0,1,4.5,4.5v49a4.505,4.505,0,0,1-4.5,4.5Z" transform="translate(-272.5 -243.16)" fill="#834e20" style="isolation: isolate"/>
    <rect id="Rectangle_223" data-name="Rectangle 223" width="20" height="4" transform="translate(549.059 90.5)" fill="#ccc"/>
    <rect id="Rectangle_224" data-name="Rectangle 224" width="20" height="4" transform="translate(549.059 121.5)" fill="#ccc"/>
    <path id="Path_12" data-name="Path 12" d="M698.559,463.16h-12a4.505,4.505,0,0,1-4.5-4.5v-49a4.505,4.505,0,0,1,4.5-4.5h12a4.505,4.505,0,0,1,4.5,4.5v49a4.505,4.505,0,0,1-4.5,4.5Z" transform="translate(-272.5 -243.16)" fill="#834e20" style="isolation: isolate"/>
    <rect id="Rectangle_225" data-name="Rectangle 225" width="20" height="4" transform="translate(410.059 171.5)" fill="#ccc"/>
    <rect id="Rectangle_226" data-name="Rectangle 226" width="20" height="4" transform="translate(410.059 202.5)" fill="#ccc"/>
    <path id="Path_13" data-name="Path 13" d="M728.559,463.16h-12a4.505,4.505,0,0,1-4.5-4.5v-49a4.505,4.505,0,0,1,4.5-4.5h12a4.505,4.505,0,0,1,4.5,4.5v49a4.505,4.505,0,0,1-4.5,4.5Z" transform="translate(-272.5 -243.16)" fill="#834e20" style="isolation: isolate"/>
    <rect id="Rectangle_227" data-name="Rectangle 227" width="20" height="4" transform="translate(440.059 171.5)" fill="#ccc"/>
    <rect id="Rectangle_228" data-name="Rectangle 228" width="20" height="4" transform="translate(440.059 202.5)" fill="#ccc"/>
    <path id="Path_14" data-name="Path 14" d="M758.559,463.16h-12a4.505,4.505,0,0,1-4.5-4.5v-49a4.505,4.505,0,0,1,4.5-4.5h12a4.505,4.505,0,0,1,4.5,4.5v49a4.505,4.505,0,0,1-4.5,4.5Z" transform="translate(-272.5 -243.16)" fill="#834e20" style="isolation: isolate"/>
    <rect id="Rectangle_229" data-name="Rectangle 229" width="20" height="4" transform="translate(470.059 171.5)" fill="#ccc"/>
    <rect id="Rectangle_230" data-name="Rectangle 230" width="20" height="4" transform="translate(470.059 202.5)" fill="#ccc"/>
    <path id="Path_15" data-name="Path 15" d="M791.559,301.16h-12a4.505,4.505,0,0,1-4.5-4.5v-49a4.5,4.5,0,0,1,4.5-4.5h12a4.505,4.505,0,0,1,4.5,4.5v49a4.505,4.505,0,0,1-4.5,4.5Z" transform="translate(-272.5 -243.16)" fill="#834e20" style="isolation: isolate"/>
    <rect id="Rectangle_231" data-name="Rectangle 231" width="20" height="4" transform="translate(503.059 9.5)" fill="#ccc"/>
    <rect id="Rectangle_232" data-name="Rectangle 232" width="20" height="4" transform="translate(503.059 40.5)" fill="#ccc"/>
    <path id="Path_16" data-name="Path 16" d="M821.559,301.16h-12a4.5,4.5,0,0,1-4.5-4.5v-49a4.505,4.505,0,0,1,4.5-4.5h12a4.505,4.505,0,0,1,4.5,4.5v49a4.505,4.505,0,0,1-4.5,4.5Z" transform="translate(-272.5 -243.16)" fill="#834e20" style="isolation: isolate"/>
    <rect id="Rectangle_233" data-name="Rectangle 233" width="20" height="4" transform="translate(533.059 9.5)" fill="#ccc"/>
    <rect id="Rectangle_234" data-name="Rectangle 234" width="20" height="4" transform="translate(533.059 40.5)" fill="#ccc"/>
    <path id="Path_17" data-name="Path 17" d="M851.559,301.16h-12a4.505,4.505,0,0,1-4.5-4.5v-49a4.505,4.505,0,0,1,4.5-4.5h12a4.505,4.505,0,0,1,4.5,4.5v49a4.505,4.505,0,0,1-4.5,4.5Z" transform="translate(-272.5 -243.16)" fill="#834e20" style="isolation: isolate"/>
    <rect id="Rectangle_235" data-name="Rectangle 235" width="20" height="4" transform="translate(563.059 9.5)" fill="#ccc"/>
    <rect id="Rectangle_236" data-name="Rectangle 236" width="20" height="4" transform="translate(563.059 40.5)" fill="#ccc"/>
    <path id="Path_18" data-name="Path 18" d="M881.559,301.16h-12a4.505,4.505,0,0,1-4.5-4.5v-49a4.505,4.505,0,0,1,4.5-4.5h12a4.505,4.505,0,0,1,4.5,4.5v49a4.505,4.505,0,0,1-4.5,4.5Z" transform="translate(-272.5 -243.16)" fill="#834e20" style="isolation: isolate"/>
    <rect id="Rectangle_237" data-name="Rectangle 237" width="20" height="4" transform="translate(593.059 9.5)" fill="#ccc"/>
    <rect id="Rectangle_238" data-name="Rectangle 238" width="20" height="4" transform="translate(593.059 40.5)" fill="#ccc"/>
    <path id="Path_19" data-name="Path 19" d="M926.5,302.66h-285a1,1,0,0,1,0-2h285a1,1,0,0,1,0,2Z" transform="translate(-272.5 -243.16)" fill="#3f3d56"/>
    <path id="Path_20" data-name="Path 20" d="M926.5,383.66h-285a1,1,0,0,1,0-2h285a1,1,0,0,1,0,2Z" transform="translate(-272.5 -243.16)" fill="#3f3d56"/>
    <path id="Path_21" data-name="Path 21" d="M926.5,464.66h-285a1,1,0,0,1,0-2h285a1,1,0,0,1,0,2Z" transform="translate(-272.5 -243.16)" fill="#3f3d56"/>
    <path id="Path_22" data-name="Path 22" d="M854.063,453.583a122.039,122.039,0,0,1,10.1-38.517q2.28-5.092,5.018-9.961a.744.744,0,0,0-1.284-.75,123.727,123.727,0,0,0-13.768,37.982q-1.034,5.584-1.554,11.246C852.488,454.535,853.975,454.529,854.063,453.583Z" transform="translate(-272.5 -243.16)" fill="#8dfe9e"/>
    <circle id="Ellipse_7" data-name="Ellipse 7" cx="9.414" cy="9.414" r="9.414" transform="translate(590.867 145.5)" fill="#ff6399"/>
    <path id="Path_23" data-name="Path 23" d="M855.026,453.833a79.175,79.175,0,0,1,6.553-24.988q1.479-3.3,3.255-6.462A.483.483,0,0,0,864,421.9a80.268,80.268,0,0,0-8.932,24.641q-.671,3.622-1.008,7.3C854,454.451,854.969,454.447,855.026,453.833Z" transform="translate(-272.5 -243.16)" fill="#8dfe9e"/>
    <circle id="Ellipse_8" data-name="Ellipse 8" cx="6.108" cy="6.108" r="6.108" transform="translate(588.562 168.554)" fill="#ff6399"/>
    <path id="Path_24" data-name="Path 24" d="M853.809,453.257a79.177,79.177,0,0,1-10.2-23.733q-.866-3.515-1.408-7.1a.483.483,0,0,0-.956.128,80.266,80.266,0,0,0,8.113,24.922q1.7,3.269,3.693,6.373c.335.522,1.093-.074.76-.593Z" transform="translate(-272.5 -243.16)" fill="#8dfe9e"/>
    <circle id="Ellipse_9" data-name="Ellipse 9" cx="6.108" cy="6.108" r="6.108" transform="translate(562.628 168.126)" fill="#ff6399"/>
    <path id="Path_25" data-name="Path 25" d="M835.059,458.66v-12a4.505,4.505,0,0,1,4.5-4.5h28a4.505,4.505,0,0,1,4.5,4.5v12a4.505,4.505,0,0,1-4.5,4.5h-28A4.505,4.505,0,0,1,835.059,458.66Z" transform="translate(-272.5 -243.16)" fill="#e39d9d" style="isolation: isolate"/>
    <path id="Path_26" data-name="Path 26" d="M654.5,609.391h-381c-.552,0-1-1.059-1-2.365s.448-2.365,1-2.365h381c.552,0,1,1.059,1,2.365S655.052,609.391,654.5,609.391Z" transform="translate(-272.5 -245.891)" fill="#555"/>
    <circle id="Ellipse_10" data-name="Ellipse 10" cx="27" cy="27" r="27" transform="translate(172.059 178.5)"/>
    <path id="Path_27" data-name="Path 27" d="M173.4,378.826l-.715-12.238L219.556,358l1.056,18.064Z" fill="#ffd4be"/>
    <path id="Path_28" data-name="Path 28" d="M436.622,598.163h23.644V613.05H421.735A14.887,14.887,0,0,1,436.622,598.163Z" transform="translate(747.34 -113.142) rotate(86.655)" fill="#2f2e41"/>
    <path id="Path_29" data-name="Path 29" d="M193.789,378.714,186,388.185l-40.236-25.519,11.489-13.978Z" fill="#ffd4be"/>
    <path id="Path_30" data-name="Path 30" d="M454.39,629.787h23.644v14.887H439.5a14.887,14.887,0,0,1,14.887-14.887Z" transform="matrix(0.635, -0.773, 0.773, 0.635, -597.32, 343.861)" fill="#5c5b62"/>
    <path id="Path_31" data-name="Path 31" d="M443.887,577.83l-5.32,25.079a4,4,0,0,0,3.848,4.83l52.3.844a4,4,0,0,0,4-4.695l-4.575-25.922a4,4,0,0,0-3.939-3.3H447.8A4,4,0,0,0,443.887,577.83Z" transform="translate(-272.5 -243.16)" fill="#2f2e41"/>
    <path id="Path_32" data-name="Path 32" d="M452.559,586.66s-51-32-61-15c-5,8.5-2.5,16.75,1.25,22.875a34.631,34.631,0,0,0,14.4,12.891l41.347,20.234,15-16-10-9Z" transform="translate(-272.5 -243.16)" fill="#5c5b62"/>
    <path id="Path_33" data-name="Path 33" d="M478.559,581.66s66-19,53,17-62,22-62,22l-5-15,17-12Z" transform="translate(-272.5 -243.16)" fill="#5c5b62"/>
    <circle id="Ellipse_11" data-name="Ellipse 11" cx="24.561" cy="24.561" r="24.561" transform="translate(174.837 187.104)" fill="#ffd4be"/>
    <path id="Path_34" data-name="Path 34" d="M473.185,585.629a131.993,131.993,0,0,1-30.257-3.986l-.293-.08-13.706-63.045a23.225,23.225,0,0,1,14.933-26.943,80.459,80.459,0,0,1,51.3-1.024h0A23.469,23.469,0,0,1,510.8,518.315l-15.308,63.2-.216.1C488.911,584.626,480.956,585.629,473.185,585.629Z" transform="translate(-272.5 -243.16)"/>
    <path id="Path_35" data-name="Path 35" d="M454.774,590.526a10.056,10.056,0,0,1,14.475-5.312l26.987-23.424,2.442,18.409-26,19.422a10.11,10.11,0,0,1-17.9-9.094Z" transform="translate(-272.5 -243.16)" fill="#ffb8b8"/>
    <path id="Path_36" data-name="Path 36" d="M480.512,595.636a4.532,4.532,0,0,1-1.3-.19,4.453,4.453,0,0,1-2.962-2.816L473,583.4a4.472,4.472,0,0,1,1.3-4.9l36.769-22.074-14.494-64.661.369-.089c.15-.037,15-3.417,21.086,12.811,4.261,11.365,20.031,36.077,18.919,52.776a14.885,14.885,0,0,1-12.322,13.728L483.236,594.7A4.456,4.456,0,0,1,480.512,595.636Z" transform="translate(-272.5 -243.16)"/>
    <path id="Path_37" data-name="Path 37" d="M484.636,588.333a10.056,10.056,0,0,0-14.475-5.312L443.174,559.6,440.733,578l26,19.422a10.11,10.11,0,0,0,17.9-9.094Z" transform="translate(-272.5 -243.16)" fill="#ffb8b8"/>
    <path id="Path_38" data-name="Path 38" d="M461.606,595.636a4.456,4.456,0,0,1-2.724-.935l-44.388-21.713a14.885,14.885,0,0,1-12.322-13.728c-1.113-16.7,17.657-43.411,21.919-54.776,6.085-16.228,20.936-12.849,21.086-12.811l.369.089-17.494,66.661L467.82,578.5a4.472,4.472,0,0,1,1.3,4.9l-3.257,9.229a4.453,4.453,0,0,1-2.962,2.816,4.536,4.536,0,0,1-1.3.19Z" transform="translate(-272.5 -243.16)"/>
    <path id="Path_39" data-name="Path 39" d="M514.559,605.66h-89a7.008,7.008,0,0,1-7-7v-49a7.008,7.008,0,0,1,7-7h89a7.008,7.008,0,0,1,7,7v49A7.008,7.008,0,0,1,514.559,605.66Z" transform="translate(-272.5 -243.16)" fill="#aaa"/>
    <circle id="Ellipse_12" data-name="Ellipse 12" cx="6" cy="6" r="6" transform="translate(191.559 325)" fill="#fff"/>
    <path id="Path_40" data-name="Path 40" d="M447.091,453.826c-1.456-3.692.933-8.092,4.476-9.881s7.818-1.448,11.608-.27c3.185.991,6.17,2.526,9.277,3.738a20.762,20.762,0,0,0,9.753,1.737c3.314-.374,6.613-2.233,7.969-5.28,1.406-3.159.45-7.013-1.715-9.709a18.8,18.8,0,0,0-8.612-5.535c-7.307-2.574-15.748-2.65-22.532,1.092s-11.394,11.71-9.992,19.33" transform="translate(-272.5 -243.16)"/>
    <path id="Path_41" data-name="Path 41" d="M305.162,594.979a122.042,122.042,0,0,1,10.1-38.517q2.28-5.092,5.018-9.961a.744.744,0,0,0-1.284-.75,123.728,123.728,0,0,0-13.768,37.982q-1.034,5.584-1.554,11.246c-.088.952,1.4.946,1.486,0Z" transform="translate(-272.5 -243.16)" fill="#8dfe9e"/>
    <circle id="Ellipse_13" data-name="Ellipse 13" cx="9.414" cy="9.414" r="9.414" transform="translate(41.967 286.896)" fill="#6c63ff"/>
    <path id="Path_42" data-name="Path 42" d="M306.125,595.229a79.173,79.173,0,0,1,6.553-24.988q1.479-3.3,3.255-6.462a.483.483,0,0,0-.833-.487,80.27,80.27,0,0,0-8.932,24.641q-.671,3.622-1.008,7.3C305.1,595.846,306.069,595.843,306.125,595.229Z" transform="translate(-272.5 -243.16)" fill="#8dff9e"/>
    <circle id="Ellipse_14" data-name="Ellipse 14" cx="6.108" cy="6.108" r="6.108" transform="translate(39.662 309.95)" fill="#6c63ff"/>
    <path id="Path_43" data-name="Path 43" d="M304.908,594.652a79.173,79.173,0,0,1-10.2-23.733q-.866-3.515-1.408-7.1a.483.483,0,0,0-.956.128,80.267,80.267,0,0,0,8.113,24.922q1.7,3.269,3.693,6.373c.335.522,1.093-.074.76-.593Z" transform="translate(-272.5 -243.16)" fill="#8dfe9e"/>
    <circle id="Ellipse_15" data-name="Ellipse 15" cx="6.108" cy="6.108" r="6.108" transform="translate(13.727 309.521)" fill="#6c63ff"/>
    <path id="Path_44" data-name="Path 44" d="M286.159,600.056v-12a4.505,4.505,0,0,1,4.5-4.5h28a4.505,4.505,0,0,1,4.5,4.5v12a4.505,4.505,0,0,1-4.5,4.5h-28a4.505,4.505,0,0,1-4.5-4.5Z" transform="translate(-272.5 -243.16)" fill="#e39d9d" style="isolation: isolate"/>
    <path id="Path_45" data-name="Path 45" d="M586.909,614.061c0,6.577-5.332,9.567-11.909,9.567s-11.909-2.99-11.909-9.567,2.646-14.251,11.909-11.6C584.262,598.487,586.909,607.484,586.909,614.061Z" transform="translate(-272.5 -243.16)" fill="#fc3a61"/>
    <path id="Path_46" data-name="Path 46" d="M574.42,605.537a1.9,1.9,0,0,1-1.891-1.659c-.394-3.281-2.568-9.708-3.484-12.318h0a1.7,1.7,0,0,1,.22-1.566,1.787,1.787,0,0,1,2.663-.192,1.7,1.7,0,0,1,.468,1.276c-.179,3.351,2.263,8.765,3.735,11.694a1.908,1.908,0,0,1-1.51,2.756A1.757,1.757,0,0,1,574.42,605.537Z" transform="translate(-272.5 -243.16)" fill="#3f3d56"/>
    <path id="Path_47" data-name="Path 47" d="M583.232,598.146c4.134-3.383.891-10.308-4.283-8.978a4.177,4.177,0,0,0-1.864.994c-3.174,3-3.666,10.669-3.666,10.669S579.024,601.59,583.232,598.146Z" transform="translate(-272.5 -243.16)" fill="#6a985f"/>
  </g>
</svg>
